# xmcd
#
# Track frame offsets: 
#        200
#        14410
#        32095
#        46315
#        59782
#        75575
#        89820
#        105022
#        120767
#        132587
#
# Disc length: 1983 seconds
#
# Revision: 3
# Processed by: cddbd v1.5.2PL0 Copyright (c) Steve Scherf et al.
# Submitted via: ExactAudioCopy v0.95b3
#
DISCID=7c07bd0a
DTITLE=Mogollon II - Still An Attitude
DYEAR=1993
DGENRE=Country
TTITLE0=All I Wanna Do
TTITLE1=Southern Ways
TTITLE2=I Can Dream
TTITLE3=The Weakness
TTITLE4=Safe Bet
TTITLE5=They Never Made It To Memphis
TTITLE6=On The Line
TTITLE7=Down On Tobacco Road
TTITLE8=It's Hard To Be Honest
TTITLE9=Caroline
EXTD=YEAR: 1993 ID3G:   2
EXTT0=
EXTT1=
EXTT2=
EXTT3=
EXTT4=
EXTT5=
EXTT6=
EXTT7=
EXTT8=
EXTT9=
PLAYORDER=
